<svg xmlns="http://www.w3.org/2000/svg" id="Layer_1" data-name="Layer 1" viewBox="0 0 653.33 242"><defs><style>.cls-5{fill:#008da8}.cls-7{fill:#54585a}</style></defs><path d="M95 41a67.18 67.18.0 0138.12-9 11.08 11.08.0 11-1.39 22.11c-23.57-1.49-43.11 1.31-58.21 6.71C79.65 52.38 86 46.19 95 41" style="fill:#ef9e53"/><path d="M72.83 136.49c-.76-1.13-1.46-2.27-2.15-3.45a67.36 67.36.0 012.88-72.28c-46.64 16.68-50.85 58.24-.73 75.73" style="fill:#ec7625"/><path d="M129.11 144.4a11.06 11.06.0 010 22.11 67.26 67.26.0 01-33.68-8.87c-10.8-6.19-15.15-11.65-22.6-21.15 14.26 5 32.94 8 56.28 7.91" style="fill:#d05f27"/><path d="M154.45 96.31a67.18 67.18.0 00-38.12-9 11.08 11.08.0 001.39 22.12c23.57-1.49 43.11 1.3 58.2 6.7-6.1-8.38-12.47-14.57-21.47-19.81" style="fill:#00788b"/><path class="cls-5" d="M176.65 191.85c.75-1.13 1.46-2.27 2.15-3.45a67.43 67.43.0 00-2.88-72.28c46.63 16.68 50.85 58.28.73 75.73"/><path d="M120.37 199.76a11.06 11.06.0 100 22.11A67.22 67.22.0 00154 213c10.81-6.19 15.16-11.65 22.61-21.15-14.27 5-32.94 8-56.28 7.91" style="fill:#00bad2"/><path class="cls-5" d="M238.48 191.7v-17.35h7.59a7.88 7.88.0 012.26.3 5 5 0 011.69.86 3.59 3.59.0 011 1.36 4.18 4.18.0 01.37 1.81 3.66 3.66.0 01-.24 1.31 3.75 3.75.0 01-1.66 2 3.39 3.39.0 01-1.24.43v.22a4.44 4.44.0 011.6.4 4.18 4.18.0 011.25.89 3.88 3.88.0 01.83 1.27 4.29 4.29.0 01.29 1.57 5.05 5.05.0 01-.41 2.06 4.31 4.31.0 01-1.2 1.57 5.48 5.48.0 01-1.89 1 8.48 8.48.0 01-2.5.35zm3.63-10.16h2.73a3.79 3.79.0 002.26-.57 1.92 1.92.0 00.77-1.63 2 2 0 00-.71-1.63 3.1 3.1.0 00-2-.58h-3zm3.24 7.38a3.8 3.8.0 002.39-.64 2.2 2.2.0 00.83-1.86 2.12 2.12.0 00-.85-1.82 4.23 4.23.0 00-2.46-.61h-3.15v4.93zM255.21 178.44h3.39v2.11h.21a2.81 2.81.0 01.45-.92 3.51 3.51.0 01.75-.74 4.11 4.11.0 011-.49 3.87 3.87.0 011.2-.18 6.51 6.51.0 01.75.0 2.66 2.66.0 01.62.13v3.18l-.3-.07-.43-.08h-.47a3.78 3.78.0 00-.46.0 4.14 4.14.0 00-1.31.2 2.87 2.87.0 00-1 .6 2.62 2.62.0 00-.66.94 3.13 3.13.0 00-.24 1.25v7.35h-3.49zM267.7 176.59a2.63 2.63.0 01-.86-.14 2.14 2.14.0 01-.65-.36 1.76 1.76.0 01-.42-.56 1.87 1.87.0 01-.14-.71 1.81 1.81.0 01.14-.72 1.56 1.56.0 01.42-.56 1.79 1.79.0 01.65-.36 2.63 2.63.0 01.86-.13 2.57 2.57.0 01.85.13 1.75 1.75.0 01.64.36 1.48 1.48.0 01.43.56 1.66 1.66.0 01.15.72 1.71 1.71.0 01-.15.71 1.65 1.65.0 01-.43.56 2.09 2.09.0 01-.64.36 2.57 2.57.0 01-.85.14zm-1.76 1.85h3.5v13.26h-3.5zm7.06.0h3.39v2.12h.21a3.77 3.77.0 011.45-1.77 4.45 4.45.0 012.47-.64 4.29 4.29.0 013.38 1.3 5.34 5.34.0 011.16 3.68v8.57h-3.5V184a3.14 3.14.0 00-.6-2.09 2.26 2.26.0 00-1.84-.7 2.73 2.73.0 00-1.1.2 2.4 2.4.0 00-.82.58 2.59 2.59.0 00-.52.92 3.65 3.65.0 00-.18 1.18v7.65H273zm21.27 18.28a9.9 9.9.0 01-2.4-.27 6.27 6.27.0 01-1.87-.79 4 4 0 01-1.25-1.23 3.48 3.48.0 01-.55-1.59h3.46a1.45 1.45.0 00.84 1 3.91 3.91.0 001.84.37 3.47 3.47.0 002.2-.62 2.11 2.11.0 00.77-1.74v-2.45h-.21a3.85 3.85.0 01-1.57 1.6 5.13 5.13.0 01-2.43.54 5.24 5.24.0 01-2.23-.47 4.79 4.79.0 01-1.69-1.31 6.15 6.15.0 01-1.07-2.07 9.4 9.4.0 01-.37-2.71 10 10 0 01.37-2.78 6.15 6.15.0 011.08-2.12 4.8 4.8.0 011.71-1.36 5.44 5.44.0 012.28-.47 4.88 4.88.0 011.28.16 4.8 4.8.0 011.14.47 3.9 3.9.0 01.93.73 4.06 4.06.0 01.67 1h.22v-2.12h3.39v13.21a4.84 4.84.0 01-.45 2.11 4.58 4.58.0 01-1.32 1.59 6.11 6.11.0 01-2.06 1 9.47 9.47.0 01-2.71.32zm3.08-11.72a5.54 5.54.0 00-.21-1.58 3.42 3.42.0 00-.6-1.19 2.69 2.69.0 00-1-.76 2.92 2.92.0 00-1.27-.27 2.84 2.84.0 00-1.26.27 2.66 2.66.0 00-.94.76 3.23 3.23.0 00-.58 1.19 6.3 6.3.0 000 3.15 3.52 3.52.0 00.57 1.2 2.66 2.66.0 00.94.76 3.23 3.23.0 002.54.0 2.64 2.64.0 001-.76 3.4 3.4.0 00.59-1.19 5.49 5.49.0 00.22-1.58zM306.1 176.59a2.52 2.52.0 01-.85-.14 2.08 2.08.0 01-.66-.36 1.72 1.72.0 01-.41-.56 1.71 1.71.0 01-.15-.71 1.66 1.66.0 01.15-.72 1.54 1.54.0 01.41-.56 1.75 1.75.0 01.66-.36 2.53 2.53.0 01.85-.13 2.49 2.49.0 01.85.13 1.79 1.79.0 01.65.36 1.56 1.56.0 01.42.56 1.66 1.66.0 01.15.72 1.71 1.71.0 01-.15.71 1.76 1.76.0 01-.42.56 2.14 2.14.0 01-.65.36 2.48 2.48.0 01-.85.14zm-1.75 1.85h3.5v13.26h-3.5zM311.38 178.44h3.39v2.12h.23a3.72 3.72.0 011.45-1.77 4.43 4.43.0 012.47-.64 4.27 4.27.0 013.37 1.3 5.29 5.29.0 011.16 3.68v8.57h-3.5V184a3.2 3.2.0 00-.59-2.09 2.29 2.29.0 00-1.85-.7 2.68 2.68.0 00-1.09.2 2.44 2.44.0 00-.83.58 2.76 2.76.0 00-.52.92 3.65 3.65.0 00-.18 1.18v7.65h-3.5zm21.3 18.28a9.93 9.93.0 01-2.41-.27 6.5 6.5.0 01-1.87-.79 4.19 4.19.0 01-1.25-1.23 3.48 3.48.0 01-.55-1.59h3.47a1.41 1.41.0 00.83 1 4 4 0 001.85.37 3.44 3.44.0 002.19-.62 2.09 2.09.0 00.78-1.74v-2.45h-.22a3.79 3.79.0 01-1.57 1.6 5.06 5.06.0 01-2.42.54 5.17 5.17.0 01-2.23-.47 4.71 4.71.0 01-1.69-1.31 6 6 0 01-1.07-2.07 9.06 9.06.0 01-.37-2.71 9.64 9.64.0 01.37-2.78 6.15 6.15.0 011.08-2.12 4.72 4.72.0 011.71-1.36 5.36 5.36.0 012.27-.47 5 5 0 011.29.16 4.56 4.56.0 011.13.47 4.16 4.16.0 01.94.73 4.36 4.36.0 01.67 1h.22v-2.12h3.39v13.21a4.84 4.84.0 01-.46 2.11 4.44 4.44.0 01-1.31 1.59 6.31 6.31.0 01-2.06 1 9.52 9.52.0 01-2.71.32zm3.07-11.72a5.54 5.54.0 00-.21-1.58 3.42 3.42.0 00-.6-1.19 2.69 2.69.0 00-.95-.76 3.1 3.1.0 00-2.53.0 2.66 2.66.0 00-.94.76 3.39 3.39.0 00-.58 1.19 6.3 6.3.0 000 3.15 3.53 3.53.0 00.58 1.2 2.54 2.54.0 00.93.76 3.26 3.26.0 002.55.0 2.6 2.6.0 00.95-.76 3.6 3.6.0 00.6-1.19 5.51 5.51.0 00.2-1.58zM352.27 191.7v-6.39l-6-11h3.93l3.82 7.26h.22l3.81-7.26h3.93l-6 11v6.39zM368 192a7.6 7.6.0 01-2.74-.47 5.44 5.44.0 01-2.06-1.37 5.83 5.83.0 01-1.28-2.18 8.8 8.8.0 01-.45-2.91 8.68 8.68.0 01.45-2.89 6.17 6.17.0 011.3-2.18 5.77 5.77.0 012.06-1.37 8.11 8.11.0 015.44.0 5.68 5.68.0 012.06 1.37 6 6 0 011.3 2.18 8.68 8.68.0 01.45 2.89 8.8 8.8.0 01-.45 2.91 5.83 5.83.0 01-1.28 2.18 5.44 5.44.0 01-2.06 1.37A7.6 7.6.0 01368 192zm0-2.86a2.51 2.51.0 002.17-1.07 5.08 5.08.0 00.77-3 6.92 6.92.0 00-.2-1.71 3.92 3.92.0 00-.58-1.27 2.48 2.48.0 00-.92-.79A2.61 2.61.0 00368 181a2.63 2.63.0 00-1.24.28 2.33 2.33.0 00-.92.79 3.71 3.71.0 00-.57 1.27 6.47 6.47.0 00-.2 1.71 5.17 5.17.0 00.75 3 2.54 2.54.0 002.18 1.08zm21.35 2.56H386v-2.13h-.22a3.69 3.69.0 01-1.41 1.79 4.36 4.36.0 01-2.46.63 5.35 5.35.0 01-1.93-.33 3.86 3.86.0 01-1.46-1 4.32 4.32.0 01-.93-1.54 6.34 6.34.0 01-.32-2.07v-8.64h3.5v7.74c0 1.84.81 2.77 2.44 2.77a2.53 2.53.0 002-.77 3 3 0 00.69-2.1v-7.64h3.5zM402.84 191.9a5.2 5.2.0 01-1.76-.28 4.18 4.18.0 01-1.37-.81 3.52 3.52.0 01-.89-1.25 4.15 4.15.0 01-.32-1.65 3.37 3.37.0 011.32-2.83 6.75 6.75.0 013.81-1.16l3.21-.19v-1.08a1.55 1.55.0 00-.57-1.29 2.63 2.63.0 00-1.66-.45 3.42 3.42.0 00-1.57.32 1.64 1.64.0 00-.83.91H399a3.83 3.83.0 01.54-1.65 4.06 4.06.0 011.21-1.27 6.06 6.06.0 011.78-.8 9 9 0 012.28-.27 8.41 8.41.0 012.34.3 4.83 4.83.0 011.72.89 3.73 3.73.0 011.07 1.41 4.77 4.77.0 01.36 1.9v9h-3.4V190h-.21a3.54 3.54.0 01-1.54 1.42 5 5 0 01-2.31.48zm1.15-2.63a3.39 3.39.0 001.13-.18 2.79 2.79.0 00.91-.51 2.43 2.43.0 00.6-.75 2.12 2.12.0 00.21-.94v-1l-2.68.16c-1.49.11-2.23.64-2.23 1.6a1.37 1.37.0 00.57 1.17 2.48 2.48.0 001.5.45zM426.42 191.7H423l-4.59-17.35h3.78l2.7 12.23h.19l3.17-12.23h3.06l3.22 12.23h.2l2.68-12.23h3.75l-4.61 17.35h-3.4l-3.28-11.48h-.19zM448.85 192a7.66 7.66.0 01-2.75-.47 5.4 5.4.0 01-2.05-1.37 6 6 0 01-1.29-2.18 8.81 8.81.0 01-.44-2.91 8.68 8.68.0 01.45-2.89 6 6 0 011.3-2.18 5.73 5.73.0 012.05-1.37 8.13 8.13.0 015.45.0 5.73 5.73.0 012.05 1.37 6 6 0 011.3 2.18 8.68 8.68.0 01.45 2.89 8.81 8.81.0 01-.44 2.91 6 6 0 01-1.29 2.18 5.4 5.4.0 01-2.05 1.37 7.64 7.64.0 01-2.74.47zm0-2.86a2.53 2.53.0 002.17-1.07 5.15 5.15.0 00.76-3 6.92 6.92.0 00-.2-1.71 3.54 3.54.0 00-.58-1.27 2.48 2.48.0 00-.92-.79 2.59 2.59.0 00-1.23-.28 2.68 2.68.0 00-1.25.28 2.48 2.48.0 00-.92.79 3.71 3.71.0 00-.57 1.27 6.92 6.92.0 00-.2 1.71 5.09 5.09.0 00.76 3 2.52 2.52.0 002.18 1.06zM458.22 178.44h3.4v2.11h.21a2.81 2.81.0 01.45-.92 3.29 3.29.0 01.75-.74 4.11 4.11.0 011-.49 3.85 3.85.0 011.19-.18 6.68 6.68.0 01.76.0 2.66 2.66.0 01.62.13v3.18l-.31-.07a3.51 3.51.0 00-.42-.08h-.47a3.78 3.78.0 00-.46.0 4.1 4.1.0 00-1.31.2 2.87 2.87.0 00-1 .6 2.51 2.51.0 00-.66.94 3.13 3.13.0 00-.24 1.25v7.35h-3.5zM469.06 173.37h3.5v18.33h-3.5zm11.88 18.53a5.31 5.31.0 01-2.26-.47 4.69 4.69.0 01-1.7-1.37 6.42 6.42.0 01-1.07-2.16 11.16 11.16.0 010-5.7 6.3 6.3.0 011.08-2.15 4.77 4.77.0 011.7-1.36 5.23 5.23.0 012.25-.47 4.62 4.62.0 012.39.61 3.82 3.82.0 011.56 1.72h.21v-7.18h3.5v18.33h-3.39v-2.08H485a3.84 3.84.0 01-.67 1 4.43 4.43.0 01-.94.72 4.84 4.84.0 01-1.14.45 5.45 5.45.0 01-1.31.11zm1.19-10.75a2.8 2.8.0 00-1.25.27 2.64 2.64.0 00-.95.78 3.7 3.7.0 00-.59 1.23 5.81 5.81.0 00-.21 1.63 6 6 0 00.21 1.66 3.7 3.7.0 00.59 1.23 2.6 2.6.0 00.94.77 3 3 0 001.26.26 2.83 2.83.0 001.25-.27 2.75 2.75.0 001-.77 3.91 3.91.0 00.59-1.23 6.62 6.62.0 000-3.27 3.91 3.91.0 00-.59-1.23 2.58 2.58.0 00-.95-.79 2.83 2.83.0 00-1.3-.27zM504.46 192a7.57 7.57.0 01-2.74-.47 5.44 5.44.0 01-2.06-1.37 6 6 0 01-1.29-2.18 9.08 9.08.0 01-.44-2.91 8.68 8.68.0 01.45-2.89 6 6 0 011.3-2.18 5.73 5.73.0 012.05-1.37 8.13 8.13.0 015.45.0 5.77 5.77.0 012.06 1.37 6.15 6.15.0 011.29 2.18 8.43 8.43.0 01.46 2.89 8.8 8.8.0 01-.45 2.91 5.85 5.85.0 01-1.29 2.18 5.4 5.4.0 01-2.05 1.37 7.64 7.64.0 01-2.74.47zm0-2.86a2.53 2.53.0 002.17-1.07 5.08 5.08.0 00.76-3 6.92 6.92.0 00-.2-1.71 3.54 3.54.0 00-.58-1.27 2.45 2.45.0 00-.91-.79 2.91 2.91.0 00-2.49.0 2.48 2.48.0 00-.92.79 3.71 3.71.0 00-.57 1.27 6.92 6.92.0 00-.2 1.71 5.17 5.17.0 00.76 3 2.54 2.54.0 002.18 1.06zM514.86 181.32h-2.14v-2.75h2.14v-1.3a3.38 3.38.0 011.19-2.9 5.83 5.83.0 013.52-.89 7.45 7.45.0 01.88.0l.76.09v2.52a3.61 3.61.0 00-.48-.07h-.67a2.09 2.09.0 00-1.35.37 1.54 1.54.0 00-.43 1.2v1h2.82v2.75h-2.74v10.36h-3.5zm18.46 10.38v-14.25h-5.21v-3.1h14v3.1H537v14.25zM546.68 191.9a5.2 5.2.0 01-1.76-.28 4.08 4.08.0 01-1.37-.81 3.68 3.68.0 01-.9-1.25 4.15 4.15.0 01-.31-1.65 3.37 3.37.0 011.32-2.83 6.75 6.75.0 013.81-1.16l3.21-.19v-1.08a1.55 1.55.0 00-.57-1.29 2.66 2.66.0 00-1.67-.45 3.41 3.41.0 00-1.56.32 1.61 1.61.0 00-.83.91h-3.22a3.82 3.82.0 01.53-1.65 4.18 4.18.0 011.21-1.27 6.12 6.12.0 011.79-.8 8.91 8.91.0 012.28-.27 8.41 8.41.0 012.34.3 4.83 4.83.0 011.72.89 3.73 3.73.0 011.07 1.41 4.77 4.77.0 01.36 1.9v9h-3.39V190h-.22a3.46 3.46.0 01-1.53 1.42 5.09 5.09.0 01-2.31.48zm1.15-2.63a3.39 3.39.0 001.13-.18 2.64 2.64.0 00.9-.51 2.17 2.17.0 00.6-.75 2 2 0 00.22-.94v-1l-2.68.16c-1.49.11-2.24.64-2.24 1.6a1.38 1.38.0 00.58 1.17 2.46 2.46.0 001.49.45zM557.69 173.37h3.5v18.33h-3.5zM576.65 187.92a4.64 4.64.0 01-.71 1.69 4.8 4.8.0 01-1.3 1.28 5.65 5.65.0 01-1.81.81 8.32 8.32.0 01-2.24.29 7.35 7.35.0 01-2.7-.47 5.23 5.23.0 01-2-1.34A5.81 5.81.0 01564.6 188a9.19 9.19.0 01-.43-2.89 9.08 9.08.0 01.44-2.91 6.2 6.2.0 011.27-2.2 5.62 5.62.0 012-1.39 7.62 7.62.0 015.27.0 5.24 5.24.0 012 1.31 5.77 5.77.0 011.22 2.11 8.69 8.69.0 01.42 2.81v1.08h-9.1v.18a3.94 3.94.0 00.23 1.33 3 3 0 00.62 1 2.58 2.58.0 00.94.64 3.26 3.26.0 001.24.22 3.77 3.77.0 001.74-.35 2 2 0 001-1zm-6.09-7.09a3.06 3.06.0 00-1.12.2 2.79 2.79.0 00-.89.58 2.84 2.84.0 00-.6.9 3.3 3.3.0 00-.28 1.17h5.65a3.11 3.11.0 00-.79-2.09 2.61 2.61.0 00-1.97-.76zM579.62 178.44H583v2.12h.22a3.72 3.72.0 011.45-1.77 4.43 4.43.0 012.47-.64 4.27 4.27.0 013.37 1.3 5.29 5.29.0 011.16 3.68v8.57h-3.5V184a3.14 3.14.0 00-.59-2.09 2.29 2.29.0 00-1.85-.7 2.68 2.68.0 00-1.09.2 2.31 2.31.0 00-.82.58 2.61 2.61.0 00-.53.92 3.65 3.65.0 00-.18 1.18v7.65h-3.5zM599.57 175.29v3.28h2.75v2.75h-2.75v6a1.75 1.75.0 00.41 1.27 1.8 1.8.0 001.31.41h1.03v2.67c-.21.0-.48.08-.78.11s-.64.05-1 .05a8.8 8.8.0 01-2.07-.21 3.32 3.32.0 01-1.39-.64 2.4 2.4.0 01-.79-1.13 4.74 4.74.0 01-.25-1.65v-6.8H594v-2.75h2.07v-3.28z"/><path class="cls-7" d="M233.51 143.43c-2.64-2.6-3.39-5.46-.88-8.33l4-4.94c2.51-2.87 5.14-3.52 8-1 5 4.94 13.43 8.72 20.2 8.72 7.66.0 12.43-3.13 12.43-7.81.0-6.64-7.41-7.42-17.2-10.54-11.42-3.65-25.35-10.29-25.35-26.16.0-14.84 12.68-25.25 31.13-25.25 11.29.0 20.83 3.9 27.23 9.63 2.89 2.34 3.89 5.2 1.38 8.2l-3.89 4.81c-2.38 2.87-5 3.39-8 1-4.14-3.51-9.67-6.63-16.32-6.63-6.27.0-10.54 2.73-10.54 7 0 5.34 6.15 7.55 12.55 9.76 13.93 4.43 30.12 9 30.12 28 0 16.79-14.56 25.9-32.38 25.9-12.99.01-25.08-4.68-32.48-12.36zm69.64-31.49c0-25.12 19.32-43.86 44.92-43.86S393 86.82 393 111.94s-19.45 43.86-44.93 43.86-44.92-18.74-44.92-43.86zm68.77.0c0-14.45-10.54-24.6-23.85-24.6s-23.84 10.15-23.84 24.6 10.54 24.6 23.84 24.6 23.85-10.29 23.85-24.6zm28.29 36.57v-73c0-3.77 2-5.85 5.52-5.85h9.54c3.64.0 5.52 2.08 5.52 5.85v61.29h30.46c3.52.0 5.52 1.95 5.52 5.72v6c0 3.64-2 5.73-5.52 5.73h-45.52c-3.51-.01-5.52-2.1-5.52-5.74zm121.04-36.57c0-25.12 19.33-43.86 44.93-43.86s44.93 18.74 44.93 43.86-19.45 43.86-44.93 43.86-44.93-18.74-44.93-43.86zm68.77.0c0-14.45-10.54-24.6-23.84-24.6s-23.84 10.15-23.84 24.6 10.54 24.6 23.84 24.6S590 126.25 590 111.94zM437.13 87.05c-3.64.0-5.65-2.08-5.65-5.73V73.8c0-3.77 2-5.72 5.65-5.72h13c4.64.0 8 .91 10.92 3 3.64 2.6 6 6.9 8.15 12.23l15.69 40.22 27.39-66.63c1.64-3.91 4.15-5.73 7.78-5.73h9.29c3.64.0 6.4 1.95 4.64 5.73l-41.36 92.39c-1.75 3.91-3.64 5.6-7.15 5.6h-1.26c-3.38.0-5.27-1.69-7.15-5.6l-26.86-59.35c-.62-1.56-1.25-2.47-2.25-2.73a2.46 2.46.0 00-.89-.16z"/><path style="fill:none" d="M0 0h653.33v242H0z"/></svg>